<?xml version="1.0" encoding="UTF-8" standalone="no"?><svg xmlns="http://www.w3.org/2000/svg" xmlns:xlink="http://www.w3.org/1999/xlink" clip-rule="evenodd" stroke-miterlimit="10" viewBox="0 0 1024 768"><desc>SVG generated by Keynote</desc><defs></defs><g transform="matrix(1.00, 0.00, -0.00, -1.00, 0.0, 768.0)"><path d="M 0.0 768.0 L 1024.0 768.0 L 1024.0 0.0 L 0.0 0.0 Z M 0.0 768.0 " fill="#FEFFFF"></path><text xml:space="preserve" font-family="Helvetica-Light,Helvetica" font-size="68.8" fill="#000000" transform="matrix(1.00, 0.00, -0.00, -1.00, 137.3, 535.5)">C</text><text xml:space="preserve" font-family="Helvetica-Light,Helvetica" font-size="68.8" fill="#000000" transform="matrix(1.00, 0.00, -0.00, -1.00, 187.0, 535.5)">A</text><text xml:space="preserve" font-family="Helvetica-Light,Helvetica" font-size="68.8" fill="#000000" transform="matrix(1.00, 0.00, -0.00, -1.00, 232.9, 535.5)">6</text><text xml:space="preserve" font-family="Helvetica-Light,Helvetica" font-size="68.8" fill="#000000" transform="matrix(1.00, 0.00, -0.00, -1.00, 271.1, 535.5)">4</text><text xml:space="preserve" font-family="Helvetica-Light,Helvetica" font-size="68.8" fill="#000000" transform="matrix(1.00, 0.00, -0.00, -1.00, 309.4, 535.5)">5</text><text xml:space="preserve" font-family="Helvetica-Light,Helvetica" font-size="68.8" fill="#000000" transform="matrix(1.00, 0.00, -0.00, -1.00, 347.6, 535.5)"> </text><text xml:space="preserve" font-family="Helvetica-Light,Helvetica" font-size="68.8" fill="#000000" transform="matrix(1.00, 0.00, -0.00, -1.00, 366.8, 535.5)">N</text><text xml:space="preserve" font-family="Helvetica-Light,Helvetica" font-size="68.8" fill="#000000" transform="matrix(1.00, 0.00, -0.00, -1.00, 416.4, 535.5)">e</text><text xml:space="preserve" font-family="Helvetica-Light,Helvetica" font-size="68.8" fill="#000000" transform="matrix(1.00, 0.00, -0.00, -1.00, 454.7, 535.5)">t</text><text xml:space="preserve" font-family="Helvetica-Light,Helvetica" font-size="68.8" fill="#000000" transform="matrix(1.00, 0.00, -0.00, -1.00, 473.8, 535.5)">w</text><text xml:space="preserve" font-family="Helvetica-Light,Helvetica" font-size="68.8" fill="#000000" transform="matrix(1.00, 0.00, -0.00, -1.00, 523.5, 535.5)">o</text><text xml:space="preserve" font-family="Helvetica-Light,Helvetica" font-size="68.8" fill="#000000" transform="matrix(1.00, 0.00, -0.00, -1.00, 561.7, 535.5)">r</text><text xml:space="preserve" font-family="Helvetica-Light,Helvetica" font-size="68.8" fill="#000000" transform="matrix(1.00, 0.00, -0.00, -1.00, 584.7, 535.5)">k</text><text xml:space="preserve" font-family="Helvetica-Light,Helvetica" font-size="68.8" fill="#000000" transform="matrix(1.00, 0.00, -0.00, -1.00, 619.1, 535.5)"> </text><text xml:space="preserve" font-family="Helvetica-Light,Helvetica" font-size="68.8" fill="#000000" transform="matrix(1.00, 0.00, -0.00, -1.00, 638.2, 535.5)">S</text><text xml:space="preserve" font-family="Helvetica-Light,Helvetica" font-size="68.8" fill="#000000" transform="matrix(1.00, 0.00, -0.00, -1.00, 680.2, 535.5)">e</text><text xml:space="preserve" font-family="Helvetica-Light,Helvetica" font-size="68.8" fill="#000000" transform="matrix(1.00, 0.00, -0.00, -1.00, 718.5, 535.5)">c</text><text xml:space="preserve" font-family="Helvetica-Light,Helvetica" font-size="68.8" fill="#000000" transform="matrix(1.00, 0.00, -0.00, -1.00, 756.7, 535.5)">u</text><text xml:space="preserve" font-family="Helvetica-Light,Helvetica" font-size="68.8" fill="#000000" transform="matrix(1.00, 0.00, -0.00, -1.00, 795.0, 535.5)">r</text><text xml:space="preserve" font-family="Helvetica-Light,Helvetica" font-size="68.8" fill="#000000" transform="matrix(1.00, 0.00, -0.00, -1.00, 817.9, 535.5)">i</text><text xml:space="preserve" font-family="Helvetica-Light,Helvetica" font-size="68.8" fill="#000000" transform="matrix(1.00, 0.00, -0.00, -1.00, 833.2, 535.5)">t</text><text xml:space="preserve" font-family="Helvetica-Light,Helvetica" font-size="68.8" fill="#000000" transform="matrix(1.00, 0.00, -0.00, -1.00, 852.3, 535.5)">y</text><text xml:space="preserve" font-family="Helvetica-Light,Helvetica" font-size="68.8" fill="#000000" transform="matrix(1.00, 0.00, -0.00, -1.00, 886.7, 535.5)"> </text><text xml:space="preserve" font-family="Helvetica-Light,Helvetica" font-size="68.8" fill="#000000" transform="matrix(1.00, 0.00, -0.00, -1.00, 905.8, 535.5)"> </text><text xml:space="preserve" font-family="Helvetica-Light,Helvetica" font-size="68.8" fill="#000000" transform="matrix(1.00, 0.00, -0.00, -1.00, 301.7, 452.5)">A</text><text xml:space="preserve" font-family="Helvetica-Light,Helvetica" font-size="68.8" fill="#000000" transform="matrix(1.00, 0.00, -0.00, -1.00, 347.6, 452.5)">s</text><text xml:space="preserve" font-family="Helvetica-Light,Helvetica" font-size="68.8" fill="#000000" transform="matrix(1.00, 0.00, -0.00, -1.00, 382.0, 452.5)">s</text><text xml:space="preserve" font-family="Helvetica-Light,Helvetica" font-size="68.8" fill="#000000" transform="matrix(1.00, 0.00, -0.00, -1.00, 416.4, 452.5)">i</text><text xml:space="preserve" font-family="Helvetica-Light,Helvetica" font-size="68.8" fill="#000000" transform="matrix(1.00, 0.00, -0.00, -1.00, 431.7, 452.5)">g</text><text xml:space="preserve" font-family="Helvetica-Light,Helvetica" font-size="68.8" fill="#000000" transform="matrix(1.00, 0.00, -0.00, -1.00, 473.7, 452.5)">n</text><text xml:space="preserve" font-family="Helvetica-Light,Helvetica" font-size="68.8" fill="#000000" transform="matrix(1.00, 0.00, -0.00, -1.00, 512.0, 452.5)">m</text><text xml:space="preserve" font-family="Helvetica-Light,Helvetica" font-size="68.8" fill="#000000" transform="matrix(1.00, 0.00, -0.00, -1.00, 569.3, 452.5)">e</text><text xml:space="preserve" font-family="Helvetica-Light,Helvetica" font-size="68.8" fill="#000000" transform="matrix(1.00, 0.00, -0.00, -1.00, 607.5, 452.5)">n</text><text xml:space="preserve" font-family="Helvetica-Light,Helvetica" font-size="68.8" fill="#000000" transform="matrix(1.00, 0.00, -0.00, -1.00, 645.8, 452.5)">t</text><text xml:space="preserve" font-family="Helvetica-Light,Helvetica" font-size="68.8" fill="#000000" transform="matrix(1.00, 0.00, -0.00, -1.00, 664.9, 452.5)"> </text><text xml:space="preserve" font-family="Helvetica-Light,Helvetica" font-size="68.8" fill="#000000" transform="matrix(1.00, 0.00, -0.00, -1.00, 684.0, 452.5)">2</text><text xml:space="preserve" font-family="Helvetica-Light,Helvetica" font-size="68.8" fill="#000000" transform="matrix(1.00, 0.00, -0.00, -1.00, 722.3, 452.5)"> </text><text xml:space="preserve" font-family="Helvetica-Light,Helvetica" font-size="27.5" fill="#000000" transform="matrix(1.00, 0.00, -0.00, -1.00, 166.6, 385.7)">P</text><text xml:space="preserve" font-family="Helvetica-Light,Helvetica" font-size="27.5" fill="#000000" transform="matrix(1.00, 0.00, -0.00, -1.00, 183.5, 385.7)">a</text><text xml:space="preserve" font-family="Helvetica-Light,Helvetica" font-size="27.5" fill="#000000" transform="matrix(1.00, 0.00, -0.00, -1.00, 198.8, 385.7)">s</text><text xml:space="preserve" font-family="Helvetica-Light,Helvetica" font-size="27.5" fill="#000000" transform="matrix(1.00, 0.00, -0.00, -1.00, 212.5, 385.7)">s</text><text xml:space="preserve" font-family="Helvetica-Light,Helvetica" font-size="27.5" fill="#000000" transform="matrix(1.00, 0.00, -0.00, -1.00, 226.3, 385.7)">-</text><text xml:space="preserve" font-family="Helvetica-Light,Helvetica" font-size="27.5" fill="#000000" transform="matrix(1.00, 0.00, -0.00, -1.00, 235.4, 385.7)">t</text><text xml:space="preserve" font-family="Helvetica-Light,Helvetica" font-size="27.5" fill="#000000" transform="matrix(1.00, 0.00, -0.00, -1.00, 243.1, 385.7)">h</text><text xml:space="preserve" font-family="Helvetica-Light,Helvetica" font-size="27.5" fill="#000000" transform="matrix(1.00, 0.00, -0.00, -1.00, 258.4, 385.7)">e</text><text xml:space="preserve" font-family="Helvetica-Light,Helvetica" font-size="27.5" fill="#000000" transform="matrix(1.00, 0.00, -0.00, -1.00, 273.7, 385.7)">-</text><text xml:space="preserve" font-family="Helvetica-Light,Helvetica" font-size="27.5" fill="#000000" transform="matrix(1.00, 0.00, -0.00, -1.00, 282.9, 385.7)">H</text><text xml:space="preserve" font-family="Helvetica-Light,Helvetica" font-size="27.5" fill="#000000" transform="matrix(1.00, 0.00, -0.00, -1.00, 302.7, 385.7)">a</text><text xml:space="preserve" font-family="Helvetica-Light,Helvetica" font-size="27.5" fill="#000000" transform="matrix(1.00, 0.00, -0.00, -1.00, 318.0, 385.7)">s</text><text xml:space="preserve" font-family="Helvetica-Light,Helvetica" font-size="27.5" fill="#000000" transform="matrix(1.00, 0.00, -0.00, -1.00, 331.8, 385.7)">h</text><text xml:space="preserve" font-family="Helvetica-Light,Helvetica" font-size="27.5" fill="#000000" transform="matrix(1.00, 0.00, -0.00, -1.00, 347.1, 385.7)"> </text><text xml:space="preserve" font-family="Helvetica-Light,Helvetica" font-size="27.5" fill="#000000" transform="matrix(1.00, 0.00, -0.00, -1.00, 354.7, 385.7)">E</text><text xml:space="preserve" font-family="Helvetica-Light,Helvetica" font-size="27.5" fill="#000000" transform="matrix(1.00, 0.00, -0.00, -1.00, 371.6, 385.7)">x</text><text xml:space="preserve" font-family="Helvetica-Light,Helvetica" font-size="27.5" fill="#000000" transform="matrix(1.00, 0.00, -0.00, -1.00, 385.3, 385.7)">p</text><text xml:space="preserve" font-family="Helvetica-Light,Helvetica" font-size="27.5" fill="#000000" transform="matrix(1.00, 0.00, -0.00, -1.00, 402.1, 385.7)">l</text><text xml:space="preserve" font-family="Helvetica-Light,Helvetica" font-size="27.5" fill="#000000" transform="matrix(1.00, 0.00, -0.00, -1.00, 408.2, 385.7)">o</text><text xml:space="preserve" font-family="Helvetica-Light,Helvetica" font-size="27.5" fill="#000000" transform="matrix(1.00, 0.00, -0.00, -1.00, 423.5, 385.7)">i</text><text xml:space="preserve" font-family="Helvetica-Light,Helvetica" font-size="27.5" fill="#000000" transform="matrix(1.00, 0.00, -0.00, -1.00, 429.6, 385.7)">t</text><text xml:space="preserve" font-family="Helvetica-Light,Helvetica" font-size="27.5" fill="#000000" transform="matrix(1.00, 0.00, -0.00, -1.00, 437.3, 385.7)"> </text><text xml:space="preserve" font-family="Helvetica-Light,Helvetica" font-size="27.5" fill="#000000" transform="matrix(1.00, 0.00, -0.00, -1.00, 444.9, 385.7)">o</text><text xml:space="preserve" font-family="Helvetica-Light,Helvetica" font-size="27.5" fill="#000000" transform="matrix(1.00, 0.00, -0.00, -1.00, 460.2, 385.7)">f</text><text xml:space="preserve" font-family="Helvetica-Light,Helvetica" font-size="27.5" fill="#000000" transform="matrix(1.00, 0.00, -0.00, -1.00, 467.9, 385.7)"> </text><text xml:space="preserve" font-family="Helvetica-Light,Helvetica" font-size="27.5" fill="#000000" transform="matrix(1.00, 0.00, -0.00, -1.00, 475.5, 385.7)">M</text><text xml:space="preserve" font-family="Helvetica-Light,Helvetica" font-size="27.5" fill="#000000" transform="matrix(1.00, 0.00, -0.00, -1.00, 498.5, 385.7)">i</text><text xml:space="preserve" font-family="Helvetica-Light,Helvetica" font-size="27.5" fill="#000000" transform="matrix(1.00, 0.00, -0.00, -1.00, 504.6, 385.7)">c</text><text xml:space="preserve" font-family="Helvetica-Light,Helvetica" font-size="27.5" fill="#000000" transform="matrix(1.00, 0.00, -0.00, -1.00, 519.9, 385.7)">r</text><text xml:space="preserve" font-family="Helvetica-Light,Helvetica" font-size="27.5" fill="#000000" transform="matrix(1.00, 0.00, -0.00, -1.00, 528.6, 385.7)">o</text><text xml:space="preserve" font-family="Helvetica-Light,Helvetica" font-size="27.5" fill="#000000" transform="matrix(1.00, 0.00, -0.00, -1.00, 543.9, 385.7)">s</text><text xml:space="preserve" font-family="Helvetica-Light,Helvetica" font-size="27.5" fill="#000000" transform="matrix(1.00, 0.00, -0.00, -1.00, 557.6, 385.7)">o</text><text xml:space="preserve" font-family="Helvetica-Light,Helvetica" font-size="27.5" fill="#000000" transform="matrix(1.00, 0.00, -0.00, -1.00, 572.9, 385.7)">f</text><text xml:space="preserve" font-family="Helvetica-Light,Helvetica" font-size="27.5" fill="#000000" transform="matrix(1.00, 0.00, -0.00, -1.00, 580.6, 385.7)">t</text><text xml:space="preserve" font-family="Helvetica-Light,Helvetica" font-size="27.5" fill="#000000" transform="matrix(1.00, 0.00, -0.00, -1.00, 588.2, 385.7)"> </text><text xml:space="preserve" font-family="Helvetica-Light,Helvetica" font-size="27.5" fill="#000000" transform="matrix(1.00, 0.00, -0.00, -1.00, 595.9, 385.7)">S</text><text xml:space="preserve" font-family="Helvetica-Light,Helvetica" font-size="27.5" fill="#000000" transform="matrix(1.00, 0.00, -0.00, -1.00, 612.7, 385.7)">Q</text><text xml:space="preserve" font-family="Helvetica-Light,Helvetica" font-size="27.5" fill="#000000" transform="matrix(1.00, 0.00, -0.00, -1.00, 634.1, 385.7)">L</text><text xml:space="preserve" font-family="Helvetica-Light,Helvetica" font-size="27.5" fill="#000000" transform="matrix(1.00, 0.00, -0.00, -1.00, 649.4, 385.7)"> </text><text xml:space="preserve" font-family="Helvetica-Light,Helvetica" font-size="27.5" fill="#000000" transform="matrix(1.00, 0.00, -0.00, -1.00, 657.0, 385.7)">S</text><text xml:space="preserve" font-family="Helvetica-Light,Helvetica" font-size="27.5" fill="#000000" transform="matrix(1.00, 0.00, -0.00, -1.00, 673.9, 385.7)">e</text><text xml:space="preserve" font-family="Helvetica-Light,Helvetica" font-size="27.5" fill="#000000" transform="matrix(1.00, 0.00, -0.00, -1.00, 689.2, 385.7)">r</text><text xml:space="preserve" font-family="Helvetica-Light,Helvetica" font-size="27.5" fill="#000000" transform="matrix(1.00, 0.00, -0.00, -1.00, 698.3, 385.7)">v</text><text xml:space="preserve" font-family="Helvetica-Light,Helvetica" font-size="27.5" fill="#000000" transform="matrix(1.00, 0.00, -0.00, -1.00, 712.1, 385.7)">e</text><text xml:space="preserve" font-family="Helvetica-Light,Helvetica" font-size="27.5" fill="#000000" transform="matrix(1.00, 0.00, -0.00, -1.00, 727.4, 385.7)">r</text><text xml:space="preserve" font-family="Helvetica-Light,Helvetica" font-size="27.5" fill="#000000" transform="matrix(1.00, 0.00, -0.00, -1.00, 736.5, 385.7)"> </text><text xml:space="preserve" font-family="Helvetica-Light,Helvetica" font-size="27.5" fill="#000000" transform="matrix(1.00, 0.00, -0.00, -1.00, 744.2, 385.7)">a</text><text xml:space="preserve" font-family="Helvetica-Light,Helvetica" font-size="27.5" fill="#000000" transform="matrix(1.00, 0.00, -0.00, -1.00, 759.5, 385.7)">n</text><text xml:space="preserve" font-family="Helvetica-Light,Helvetica" font-size="27.5" fill="#000000" transform="matrix(1.00, 0.00, -0.00, -1.00, 774.8, 385.7)">d</text><text xml:space="preserve" font-family="Helvetica-Light,Helvetica" font-size="27.5" fill="#000000" transform="matrix(1.00, 0.00, -0.00, -1.00, 791.6, 385.7)"> </text><text xml:space="preserve" font-family="Helvetica-Light,Helvetica" font-size="27.5" fill="#000000" transform="matrix(1.00, 0.00, -0.00, -1.00, 799.3, 385.7)">S</text><text xml:space="preserve" font-family="Helvetica-Light,Helvetica" font-size="27.5" fill="#000000" transform="matrix(1.00, 0.00, -0.00, -1.00, 816.1, 385.7)">M</text><text xml:space="preserve" font-family="Helvetica-Light,Helvetica" font-size="27.5" fill="#000000" transform="matrix(1.00, 0.00, -0.00, -1.00, 839.0, 385.7)">B</text><text xml:space="preserve" font-family="Helvetica-Light,Helvetica" font-size="27.5" fill="#000000" transform="matrix(1.00, 0.00, -0.00, -1.00, 857.4, 385.7)"> </text><text xml:space="preserve" font-family="Helvetica-Light,Helvetica" font-size="27.5" fill="#000000" transform="matrix(1.00, 0.00, -0.00, -1.00, 865.0, 385.7)"> </text><text xml:space="preserve" font-family="Helvetica-Light,Helvetica" font-size="27.5" fill="#000000" transform="matrix(1.00, 0.00, -0.00, -1.00, 411.1, 353.7)">u</text><text xml:space="preserve" font-family="Helvetica-Light,Helvetica" font-size="27.5" fill="#000000" transform="matrix(1.00, 0.00, -0.00, -1.00, 426.4, 353.7)">s</text><text xml:space="preserve" font-family="Helvetica-Light,Helvetica" font-size="27.5" fill="#000000" transform="matrix(1.00, 0.00, -0.00, -1.00, 440.1, 353.7)">i</text><text xml:space="preserve" font-family="Helvetica-Light,Helvetica" font-size="27.5" fill="#000000" transform="matrix(1.00, 0.00, -0.00, -1.00, 446.2, 353.7)">n</text><text xml:space="preserve" font-family="Helvetica-Light,Helvetica" font-size="27.5" fill="#000000" transform="matrix(1.00, 0.00, -0.00, -1.00, 461.5, 353.7)">g</text><text xml:space="preserve" font-family="Helvetica-Light,Helvetica" font-size="27.5" fill="#000000" transform="matrix(1.00, 0.00, -0.00, -1.00, 478.4, 353.7)"> </text><text xml:space="preserve" font-family="Helvetica-Light,Helvetica" font-size="27.5" fill="#000000" transform="matrix(1.00, 0.00, -0.00, -1.00, 486.0, 353.7)">M</text><text xml:space="preserve" font-family="Helvetica-Light,Helvetica" font-size="27.5" fill="#000000" transform="matrix(1.00, 0.00, -0.00, -1.00, 508.9, 353.7)">e</text><text xml:space="preserve" font-family="Helvetica-Light,Helvetica" font-size="27.5" fill="#000000" transform="matrix(1.00, 0.00, -0.00, -1.00, 524.2, 353.7)">t</text><text xml:space="preserve" font-family="Helvetica-Light,Helvetica" font-size="27.5" fill="#000000" transform="matrix(1.00, 0.00, -0.00, -1.00, 531.9, 353.7)">a</text><text xml:space="preserve" font-family="Helvetica-Light,Helvetica" font-size="27.5" fill="#000000" transform="matrix(1.00, 0.00, -0.00, -1.00, 547.2, 353.7)">s</text><text xml:space="preserve" font-family="Helvetica-Light,Helvetica" font-size="27.5" fill="#000000" transform="matrix(1.00, 0.00, -0.00, -1.00, 560.9, 353.7)">p</text><text xml:space="preserve" font-family="Helvetica-Light,Helvetica" font-size="27.5" fill="#000000" transform="matrix(1.00, 0.00, -0.00, -1.00, 577.8, 353.7)">l</text><text xml:space="preserve" font-family="Helvetica-Light,Helvetica" font-size="27.5" fill="#000000" transform="matrix(1.00, 0.00, -0.00, -1.00, 583.9, 353.7)">o</text><text xml:space="preserve" font-family="Helvetica-Light,Helvetica" font-size="27.5" fill="#000000" transform="matrix(1.00, 0.00, -0.00, -1.00, 599.2, 353.7)">i</text><text xml:space="preserve" font-family="Helvetica-Light,Helvetica" font-size="27.5" fill="#000000" transform="matrix(1.00, 0.00, -0.00, -1.00, 605.3, 353.7)">t</text><text xml:space="preserve" font-family="Helvetica-Light,Helvetica" font-size="27.5" fill="#000000" transform="matrix(1.00, 0.00, -0.00, -1.00, 612.9, 353.7)"> </text><text xml:space="preserve" font-family="Helvetica-Light,Helvetica" font-size="24.1" fill="#000000" transform="matrix(1.00, 0.00, -0.00, -1.00, 407.6, 297.6)">J</text><text xml:space="preserve" font-family="Helvetica-Light,Helvetica" font-size="24.1" fill="#000000" transform="matrix(1.00, 0.00, -0.00, -1.00, 419.6, 297.6)">o</text><text xml:space="preserve" font-family="Helvetica-Light,Helvetica" font-size="24.1" fill="#000000" transform="matrix(1.00, 0.00, -0.00, -1.00, 433.0, 297.6)">h</text><text xml:space="preserve" font-family="Helvetica-Light,Helvetica" font-size="24.1" fill="#000000" transform="matrix(1.00, 0.00, -0.00, -1.00, 446.4, 297.6)">n</text><text xml:space="preserve" font-family="Helvetica-Light,Helvetica" font-size="24.1" fill="#000000" transform="matrix(1.00, 0.00, -0.00, -1.00, 459.8, 297.6)"> </text><text xml:space="preserve" font-family="Helvetica-Light,Helvetica" font-size="24.1" fill="#000000" transform="matrix(1.00, 0.00, -0.00, -1.00, 466.5, 297.6)">A</text><text xml:space="preserve" font-family="Helvetica-Light,Helvetica" font-size="24.1" fill="#000000" transform="matrix(1.00, 0.00, -0.00, -1.00, 482.6, 297.6)">n</text><text xml:space="preserve" font-family="Helvetica-Light,Helvetica" font-size="24.1" fill="#000000" transform="matrix(1.00, 0.00, -0.00, -1.00, 495.9, 297.6)">t</text><text xml:space="preserve" font-family="Helvetica-Light,Helvetica" font-size="24.1" fill="#000000" transform="matrix(1.00, 0.00, -0.00, -1.00, 502.6, 297.6)">h</text><text xml:space="preserve" font-family="Helvetica-Light,Helvetica" font-size="24.1" fill="#000000" transform="matrix(1.00, 0.00, -0.00, -1.00, 516.0, 297.6)">o</text><text xml:space="preserve" font-family="Helvetica-Light,Helvetica" font-size="24.1" fill="#000000" transform="matrix(1.00, 0.00, -0.00, -1.00, 529.4, 297.6)">n</text><text xml:space="preserve" font-family="Helvetica-Light,Helvetica" font-size="24.1" fill="#000000" transform="matrix(1.00, 0.00, -0.00, -1.00, 542.8, 297.6)">y</text><text xml:space="preserve" font-family="Helvetica-Light,Helvetica" font-size="24.1" fill="#000000" transform="matrix(1.00, 0.00, -0.00, -1.00, 554.8, 297.6)"> </text><text xml:space="preserve" font-family="Helvetica-Light,Helvetica" font-size="24.1" fill="#000000" transform="matrix(1.00, 0.00, -0.00, -1.00, 561.5, 297.6)">R</text><text xml:space="preserve" font-family="Helvetica-Light,Helvetica" font-size="24.1" fill="#000000" transform="matrix(1.00, 0.00, -0.00, -1.00, 577.6, 297.6)">y</text><text xml:space="preserve" font-family="Helvetica-Light,Helvetica" font-size="24.1" fill="#000000" transform="matrix(1.00, 0.00, -0.00, -1.00, 589.6, 297.6)">a</text><text xml:space="preserve" font-family="Helvetica-Light,Helvetica" font-size="24.1" fill="#000000" transform="matrix(1.00, 0.00, -0.00, -1.00, 603.0, 297.6)">n</text><text xml:space="preserve" font-family="Times-Roman,Times" font-size="24.1" fill="#000000" transform="matrix(1.00, 0.00, -0.00, -1.00, 616.4, 297.6)">	</text><text xml:space="preserve" font-family="Times-Roman,Times" font-size="24.1" fill="#000000" transform="matrix(1.00, 0.00, -0.00, -1.00, 644.4, 297.6)">
</text><text xml:space="preserve" font-family="Times-Roman,Times" font-size="24.1" fill="#000000" transform="matrix(1.00, 0.00, -0.00, -1.00, 644.4, 297.6)"></text><text xml:space="preserve" font-family="TimesNewRomanPSMT,Times New Roman" font-size="24.1" fill="#000000" transform="matrix(1.00, 0.00, -0.00, -1.00, 408.3, 271.3)">S</text><text xml:space="preserve" font-family="TimesNewRomanPSMT,Times New Roman" font-size="24.1" fill="#000000" transform="matrix(1.00, 0.00, -0.00, -1.00, 421.7, 271.3)">c</text><text xml:space="preserve" font-family="TimesNewRomanPSMT,Times New Roman" font-size="24.1" fill="#000000" transform="matrix(1.00, 0.00, -0.00, -1.00, 432.4, 271.3)">h</text><text xml:space="preserve" font-family="TimesNewRomanPSMT,Times New Roman" font-size="24.1" fill="#000000" transform="matrix(1.00, 0.00, -0.00, -1.00, 444.4, 271.3)">o</text><text xml:space="preserve" font-family="TimesNewRomanPSMT,Times New Roman" font-size="24.1" fill="#000000" transform="matrix(1.00, 0.00, -0.00, -1.00, 456.5, 271.3)">o</text><text xml:space="preserve" font-family="TimesNewRomanPSMT,Times New Roman" font-size="24.1" fill="#000000" transform="matrix(1.00, 0.00, -0.00, -1.00, 468.5, 271.3)">l</text><text xml:space="preserve" font-family="TimesNewRomanPSMT,Times New Roman" font-size="24.1" fill="#000000" transform="matrix(1.00, 0.00, -0.00, -1.00, 475.2, 271.3)"> </text><text xml:space="preserve" font-family="TimesNewRomanPSMT,Times New Roman" font-size="24.1" fill="#000000" transform="matrix(1.00, 0.00, -0.00, -1.00, 481.2, 271.3)">o</text><text xml:space="preserve" font-family="TimesNewRomanPSMT,Times New Roman" font-size="24.1" fill="#000000" transform="matrix(1.00, 0.00, -0.00, -1.00, 493.3, 271.3)">f</text><text xml:space="preserve" font-family="TimesNewRomanPSMT,Times New Roman" font-size="24.1" fill="#000000" transform="matrix(1.00, 0.00, -0.00, -1.00, 501.3, 271.3)"> </text><text xml:space="preserve" font-family="TimesNewRomanPSMT,Times New Roman" font-size="24.1" fill="#000000" transform="matrix(1.00, 0.00, -0.00, -1.00, 507.3, 271.3)">C</text><text xml:space="preserve" font-family="TimesNewRomanPSMT,Times New Roman" font-size="24.1" fill="#000000" transform="matrix(1.00, 0.00, -0.00, -1.00, 523.4, 271.3)">o</text><text xml:space="preserve" font-family="TimesNewRomanPSMT,Times New Roman" font-size="24.1" fill="#000000" transform="matrix(1.00, 0.00, -0.00, -1.00, 535.4, 271.3)">m</text><text xml:space="preserve" font-family="TimesNewRomanPSMT,Times New Roman" font-size="24.1" fill="#000000" transform="matrix(1.00, 0.00, -0.00, -1.00, 554.1, 271.3)">p</text><text xml:space="preserve" font-family="TimesNewRomanPSMT,Times New Roman" font-size="24.1" fill="#000000" transform="matrix(1.00, 0.00, -0.00, -1.00, 566.2, 271.3)">u</text><text xml:space="preserve" font-family="TimesNewRomanPSMT,Times New Roman" font-size="24.1" fill="#000000" transform="matrix(1.00, 0.00, -0.00, -1.00, 578.2, 271.3)">t</text><text xml:space="preserve" font-family="TimesNewRomanPSMT,Times New Roman" font-size="24.1" fill="#000000" transform="matrix(1.00, 0.00, -0.00, -1.00, 584.9, 271.3)">i</text><text xml:space="preserve" font-family="TimesNewRomanPSMT,Times New Roman" font-size="24.1" fill="#000000" transform="matrix(1.00, 0.00, -0.00, -1.00, 591.6, 271.3)">n</text><text xml:space="preserve" font-family="TimesNewRomanPSMT,Times New Roman" font-size="24.1" fill="#000000" transform="matrix(1.00, 0.00, -0.00, -1.00, 603.6, 271.3)">g</text><text xml:space="preserve" font-family="LucidaGrande,Lucida Grande" font-size="24.1" fill="#000000" transform="matrix(1.00, 0.00, -0.00, -1.00, 615.7, 271.3)"> </text><text xml:space="preserve" font-family="TimesNewRomanPSMT,Times New Roman" font-size="24.1" fill="#000000" transform="matrix(1.00, 0.00, -0.00, -1.00, 486.6, 244.3)">D</text><text xml:space="preserve" font-family="TimesNewRomanPSMT,Times New Roman" font-size="24.1" fill="#000000" transform="matrix(1.00, 0.00, -0.00, -1.00, 504.0, 244.3)">C</text><text xml:space="preserve" font-family="TimesNewRomanPSMT,Times New Roman" font-size="24.1" fill="#000000" transform="matrix(1.00, 0.00, -0.00, -1.00, 520.0, 244.3)">U</text><text xml:space="preserve" font-family="LucidaGrande,Lucida Grande" font-size="24.1" fill="#000000" transform="matrix(1.00, 0.00, -0.00, -1.00, 537.4, 244.3)"> </text><text xml:space="preserve" font-family="TimesNewRomanPSMT,Times New Roman" font-size="24.1" fill="#000000" transform="matrix(1.00, 0.00, -0.00, -1.00, 399.6, 213.6)">S</text><text xml:space="preserve" font-family="TimesNewRomanPSMT,Times New Roman" font-size="24.1" fill="#000000" transform="matrix(1.00, 0.00, -0.00, -1.00, 413.0, 213.6)">t</text><text xml:space="preserve" font-family="TimesNewRomanPSMT,Times New Roman" font-size="24.1" fill="#000000" transform="matrix(1.00, 0.00, -0.00, -1.00, 419.7, 213.6)">u</text><text xml:space="preserve" font-family="TimesNewRomanPSMT,Times New Roman" font-size="24.1" fill="#000000" transform="matrix(1.00, 0.00, -0.00, -1.00, 431.7, 213.6)">d</text><text xml:space="preserve" font-family="TimesNewRomanPSMT,Times New Roman" font-size="24.1" fill="#000000" transform="matrix(1.00, 0.00, -0.00, -1.00, 443.7, 213.6)">e</text><text xml:space="preserve" font-family="TimesNewRomanPSMT,Times New Roman" font-size="24.1" fill="#000000" transform="matrix(1.00, 0.00, -0.00, -1.00, 454.4, 213.6)">n</text><text xml:space="preserve" font-family="TimesNewRomanPSMT,Times New Roman" font-size="24.1" fill="#000000" transform="matrix(1.00, 0.00, -0.00, -1.00, 466.5, 213.6)">t</text><text xml:space="preserve" font-family="TimesNewRomanPSMT,Times New Roman" font-size="24.1" fill="#000000" transform="matrix(1.00, 0.00, -0.00, -1.00, 473.2, 213.6)"> </text><text xml:space="preserve" font-family="TimesNewRomanPSMT,Times New Roman" font-size="24.1" fill="#000000" transform="matrix(1.00, 0.00, -0.00, -1.00, 479.2, 213.6)">I</text><text xml:space="preserve" font-family="TimesNewRomanPSMT,Times New Roman" font-size="24.1" fill="#000000" transform="matrix(1.00, 0.00, -0.00, -1.00, 487.2, 213.6)">D</text><text xml:space="preserve" font-family="TimesNewRomanPSMT,Times New Roman" font-size="24.1" fill="#000000" transform="matrix(1.00, 0.00, -0.00, -1.00, 504.6, 213.6)">:</text><text xml:space="preserve" font-family="TimesNewRomanPSMT,Times New Roman" font-size="24.1" fill="#000000" transform="matrix(1.00, 0.00, -0.00, -1.00, 511.3, 213.6)"> </text><text xml:space="preserve" font-family="Helvetica-Light,Helvetica" font-size="24.1" fill="#000000" transform="matrix(1.00, 0.00, -0.00, -1.00, 517.3, 213.6)">1</text><text xml:space="preserve" font-family="Helvetica-Light,Helvetica" font-size="24.1" fill="#000000" transform="matrix(1.00, 0.00, -0.00, -1.00, 530.7, 213.6)">2</text><text xml:space="preserve" font-family="Helvetica-Light,Helvetica" font-size="24.1" fill="#000000" transform="matrix(1.00, 0.00, -0.00, -1.00, 544.1, 213.6)">2</text><text xml:space="preserve" font-family="Helvetica-Light,Helvetica" font-size="24.1" fill="#000000" transform="matrix(1.00, 0.00, -0.00, -1.00, 557.5, 213.6)">1</text><text xml:space="preserve" font-family="Helvetica-Light,Helvetica" font-size="24.1" fill="#000000" transform="matrix(1.00, 0.00, -0.00, -1.00, 570.9, 213.6)">1</text><text xml:space="preserve" font-family="Helvetica-Light,Helvetica" font-size="24.1" fill="#000000" transform="matrix(1.00, 0.00, -0.00, -1.00, 584.2, 213.6)">9</text><text xml:space="preserve" font-family="Helvetica-Light,Helvetica" font-size="24.1" fill="#000000" transform="matrix(1.00, 0.00, -0.00, -1.00, 597.6, 213.6)">1</text><text xml:space="preserve" font-family="Helvetica-Light,Helvetica" font-size="24.1" fill="#000000" transform="matrix(1.00, 0.00, -0.00, -1.00, 611.0, 213.6)">1</text><text xml:space="preserve" font-family="Helvetica-Light,Helvetica" font-size="24.1" fill="#000000" transform="matrix(1.00, 0.00, -0.00, -1.00, 624.4, 213.6)"> </text><text xml:space="preserve" font-family="Helvetica-Light,Helvetica" font-size="24.1" fill="#000000" transform="matrix(1.00, 0.00, -0.00, -1.00, 631.1, 213.6)"> </text><text xml:space="preserve" font-family="Helvetica-Light,Helvetica" font-size="24.1" fill="#000000" transform="matrix(1.00, 0.00, -0.00, -1.00, 332.2, 182.6)">E</text><text xml:space="preserve" font-family="Helvetica-Light,Helvetica" font-size="24.1" fill="#000000" transform="matrix(1.00, 0.00, -0.00, -1.00, 346.9, 182.6)">m</text><text xml:space="preserve" font-family="Helvetica-Light,Helvetica" font-size="24.1" fill="#000000" transform="matrix(1.00, 0.00, -0.00, -1.00, 367.0, 182.6)">a</text><text xml:space="preserve" font-family="Helvetica-Light,Helvetica" font-size="24.1" fill="#000000" transform="matrix(1.00, 0.00, -0.00, -1.00, 380.4, 182.6)">i</text><text xml:space="preserve" font-family="Helvetica-Light,Helvetica" font-size="24.1" fill="#000000" transform="matrix(1.00, 0.00, -0.00, -1.00, 385.7, 182.6)">l</text><text xml:space="preserve" font-family="Helvetica-Light,Helvetica" font-size="24.1" fill="#000000" transform="matrix(1.00, 0.00, -0.00, -1.00, 391.1, 182.6)">:</text><text xml:space="preserve" font-family="Helvetica-Light,Helvetica" font-size="24.1" fill="#000000" transform="matrix(1.00, 0.00, -0.00, -1.00, 397.8, 182.6)"> </text><text xml:space="preserve" font-family="Helvetica-Light,Helvetica" font-size="24.1" fill="#000000" transform="matrix(1.00, 0.00, -0.00, -1.00, 404.4, 182.6)">r</text><text xml:space="preserve" font-family="Helvetica-Light,Helvetica" font-size="24.1" fill="#000000" transform="matrix(1.00, 0.00, -0.00, -1.00, 412.9, 182.6)">y</text><text xml:space="preserve" font-family="Helvetica-Light,Helvetica" font-size="24.1" fill="#000000" transform="matrix(1.00, 0.00, -0.00, -1.00, 424.9, 182.6)">a</text><text xml:space="preserve" font-family="Helvetica-Light,Helvetica" font-size="24.1" fill="#000000" transform="matrix(1.00, 0.00, -0.00, -1.00, 438.3, 182.6)">n</text><text xml:space="preserve" font-family="Helvetica-Light,Helvetica" font-size="24.1" fill="#000000" transform="matrix(1.00, 0.00, -0.00, -1.00, 451.7, 182.6)">j</text><text xml:space="preserve" font-family="Helvetica-Light,Helvetica" font-size="24.1" fill="#000000" transform="matrix(1.00, 0.00, -0.00, -1.00, 457.1, 182.6)">7</text><text xml:space="preserve" font-family="Helvetica-Light,Helvetica" font-size="24.1" fill="#000000" transform="matrix(1.00, 0.00, -0.00, -1.00, 470.4, 182.6)">9</text><text xml:space="preserve" font-family="Helvetica-Light,Helvetica" font-size="24.1" fill="#000000" transform="matrix(1.00, 0.00, -0.00, -1.00, 483.8, 182.6)">@</text><text xml:space="preserve" font-family="Helvetica-Light,Helvetica" font-size="24.1" fill="#000000" transform="matrix(1.00, 0.00, -0.00, -1.00, 503.1, 182.6)">c</text><text xml:space="preserve" font-family="Helvetica-Light,Helvetica" font-size="24.1" fill="#000000" transform="matrix(1.00, 0.00, -0.00, -1.00, 516.5, 182.6)">o</text><text xml:space="preserve" font-family="Helvetica-Light,Helvetica" font-size="24.1" fill="#000000" transform="matrix(1.00, 0.00, -0.00, -1.00, 529.9, 182.6)">m</text><text xml:space="preserve" font-family="Helvetica-Light,Helvetica" font-size="24.1" fill="#000000" transform="matrix(1.00, 0.00, -0.00, -1.00, 549.9, 182.6)">p</text><text xml:space="preserve" font-family="Helvetica-Light,Helvetica" font-size="24.1" fill="#000000" transform="matrix(1.00, 0.00, -0.00, -1.00, 564.7, 182.6)">u</text><text xml:space="preserve" font-family="Helvetica-Light,Helvetica" font-size="24.1" fill="#000000" transform="matrix(1.00, 0.00, -0.00, -1.00, 578.0, 182.6)">t</text><text xml:space="preserve" font-family="Helvetica-Light,Helvetica" font-size="24.1" fill="#000000" transform="matrix(1.00, 0.00, -0.00, -1.00, 584.7, 182.6)">i</text><text xml:space="preserve" font-family="Helvetica-Light,Helvetica" font-size="24.1" fill="#000000" transform="matrix(1.00, 0.00, -0.00, -1.00, 590.1, 182.6)">n</text><text xml:space="preserve" font-family="Helvetica-Light,Helvetica" font-size="24.1" fill="#000000" transform="matrix(1.00, 0.00, -0.00, -1.00, 603.5, 182.6)">g</text><text xml:space="preserve" font-family="Helvetica-Light,Helvetica" font-size="24.1" fill="#000000" transform="matrix(1.00, 0.00, -0.00, -1.00, 618.2, 182.6)">.</text><text xml:space="preserve" font-family="Helvetica-Light,Helvetica" font-size="24.1" fill="#000000" transform="matrix(1.00, 0.00, -0.00, -1.00, 624.9, 182.6)">d</text><text xml:space="preserve" font-family="Helvetica-Light,Helvetica" font-size="24.1" fill="#000000" transform="matrix(1.00, 0.00, -0.00, -1.00, 639.6, 182.6)">c</text><text xml:space="preserve" font-family="Helvetica-Light,Helvetica" font-size="24.1" fill="#000000" transform="matrix(1.00, 0.00, -0.00, -1.00, 653.0, 182.6)">u</text><text xml:space="preserve" font-family="Helvetica-Light,Helvetica" font-size="24.1" fill="#000000" transform="matrix(1.00, 0.00, -0.00, -1.00, 666.4, 182.6)">.</text><text xml:space="preserve" font-family="Helvetica-Light,Helvetica" font-size="24.1" fill="#000000" transform="matrix(1.00, 0.00, -0.00, -1.00, 673.1, 182.6)">i</text><text xml:space="preserve" font-family="Helvetica-Light,Helvetica" font-size="24.1" fill="#000000" transform="matrix(1.00, 0.00, -0.00, -1.00, 678.4, 182.6)">e</text><text xml:space="preserve" font-family="Times-Roman,Times" font-size="10.3" fill="#000000" transform="matrix(1.00, 0.00, -0.00, -1.00, 691.8, 182.6)">	</text><text xml:space="preserve" font-family="Times-Roman,Times" font-size="10.3" fill="#000000" transform="matrix(1.00, 0.00, -0.00, -1.00, 719.8, 182.6)">
</text><text xml:space="preserve" font-family="Times-Roman,Times" font-size="10.3" fill="#000000" transform="matrix(1.00, 0.00, -0.00, -1.00, 719.8, 182.6)"></text><g><clipPath id="clip0x600000aa49e0"><path d="M 403.4 179.1 L 691.8 179.1 L 691.8 182.4 L 403.4 182.4 Z M 403.4 179.1 "></path></clipPath><g clip-path="url(#clip0x600000aa49e0)"><path d="M 304.4 458.3 L 591.8 458.3 " fill="none" stroke="#000000" stroke-width="1.20" transform="matrix(1.00, 0.00, 0.00, -1.00, 100.0, 639.0)"></path></g></g><g><clipPath id="clip0x600000aa4740"><path d="M -3.0 -3.1 L 1027.0 -3.1 L 1027.0 134.2 L -3.0 134.2 Z M -3.0 -3.1 "></path></clipPath><g clip-path="url(#clip0x600000aa4740)"><path d="M -3.0 134.2 L 1027.0 134.2 L 1027.0 -3.1 L -3.0 -3.1 Z M -3.0 134.2 " fill="#FEFFFF" fill-opacity="0.00"></path></g></g><g><clipPath id="clip0x600000aa4560"><path d="M -3.0 133.7 L 1027.0 133.7 L 1027.0 -3.1 L -3.0 -3.1 Z M -3.0 133.7 "></path></clipPath><g clip-path="url(#clip0x600000aa4560)"><g><clipPath id="clip0x600000aa3f00"><path d="M -3.0 -3.1 L 1027.0 -3.1 L 1027.0 133.7 L -3.0 133.7 Z M -3.0 -3.1 "></path></clipPath><g clip-path="url(#clip0x600000aa3f00)"><image xlink:href="C34184BBCF388447B7F8FAFC159AF093.jpeg" width="1400.00" height="186.00" transform="matrix(0.74, 0.00, -0.00, -0.74, -3.0, 133.7)"></image></g></g></g></g><g><clipPath id="clip0x600000aa4260"><path d="M -5.6 664.1 L 1024.5 664.1 L 1024.5 789.9 L -5.6 789.9 Z M -5.6 664.1 "></path></clipPath><g clip-path="url(#clip0x600000aa4260)"><path d="M -5.6 789.9 L 1024.5 789.9 L 1024.5 664.1 L -5.6 664.1 Z M -5.6 789.9 " fill="#FEFFFF" fill-opacity="0.00"></path></g></g><g><clipPath id="clip0x600000aa41a0"><path d="M -4.3 789.9 L 1024.5 789.9 L 1024.5 665.0 L -4.3 665.0 Z M -4.3 789.9 "></path></clipPath><g clip-path="url(#clip0x600000aa41a0)"><g><clipPath id="clip0x600000aa3cc0"><path d="M -4.3 665.0 L 1024.5 665.0 L 1024.5 789.9 L -4.3 789.9 Z M -4.3 665.0 "></path></clipPath><g clip-path="url(#clip0x600000aa3cc0)"><image xlink:href="C00A0FD93C88721B43561D3268FE99FB.png" width="3000.00" height="364.00" transform="matrix(0.34, 0.00, -0.00, -0.34, -4.3, 789.9)"></image></g></g></g></g></g></svg>