<?xml version="1.0" encoding="UTF-8" standalone="no"?><svg xmlns="http://www.w3.org/2000/svg" xmlns:xlink="http://www.w3.org/1999/xlink" clip-rule="evenodd" stroke-miterlimit="10" viewBox="0 0 1024 768"><desc>SVG generated by Keynote</desc><defs></defs><g transform="matrix(1.00, 0.00, -0.00, -1.00, 0.0, 768.0)"><path d="M 0.0 768.0 L 1024.0 768.0 L 1024.0 0.0 L 0.0 0.0 Z M 0.0 768.0 " fill="#FEFFFF"></path><image xlink:href="1BC49180499F5A94E2B392F358FBA16C.png" width="80.00" height="80.00" transform="matrix(0.18, 0.00, -0.00, -0.18, 279.0, 621.0)"></image><text xml:space="preserve" font-family="Helvetica-Light,Helvetica" font-size="31.7" fill="#000000" transform="matrix(1.00, 0.00, -0.00, -1.00, 309.8, 605.3)">I</text><text xml:space="preserve" font-family="Helvetica-Light,Helvetica" font-size="31.7" fill="#000000" transform="matrix(1.00, 0.00, -0.00, -1.00, 318.6, 605.3)">n</text><text xml:space="preserve" font-family="Helvetica-Light,Helvetica" font-size="31.7" fill="#000000" transform="matrix(1.00, 0.00, -0.00, -1.00, 336.2, 605.3)">t</text><text xml:space="preserve" font-family="Helvetica-Light,Helvetica" font-size="31.7" fill="#000000" transform="matrix(1.00, 0.00, -0.00, -1.00, 345.0, 605.3)">r</text><text xml:space="preserve" font-family="Helvetica-Light,Helvetica" font-size="31.7" fill="#000000" transform="matrix(1.00, 0.00, -0.00, -1.00, 355.0, 605.3)">o</text><text xml:space="preserve" font-family="Helvetica-Light,Helvetica" font-size="31.7" fill="#000000" transform="matrix(1.00, 0.00, -0.00, -1.00, 372.6, 605.3)">d</text><text xml:space="preserve" font-family="Helvetica-Light,Helvetica" font-size="31.7" fill="#000000" transform="matrix(1.00, 0.00, -0.00, -1.00, 392.0, 605.3)">u</text><text xml:space="preserve" font-family="Helvetica-Light,Helvetica" font-size="31.7" fill="#000000" transform="matrix(1.00, 0.00, -0.00, -1.00, 409.6, 605.3)">c</text><text xml:space="preserve" font-family="Helvetica-Light,Helvetica" font-size="31.7" fill="#000000" transform="matrix(1.00, 0.00, -0.00, -1.00, 427.2, 605.3)">t</text><text xml:space="preserve" font-family="Helvetica-Light,Helvetica" font-size="31.7" fill="#000000" transform="matrix(1.00, 0.00, -0.00, -1.00, 436.0, 605.3)">i</text><text xml:space="preserve" font-family="Helvetica-Light,Helvetica" font-size="31.7" fill="#000000" transform="matrix(1.00, 0.00, -0.00, -1.00, 443.0, 605.3)">o</text><text xml:space="preserve" font-family="Helvetica-Light,Helvetica" font-size="31.7" fill="#000000" transform="matrix(1.00, 0.00, -0.00, -1.00, 460.7, 605.3)">n</text><text xml:space="preserve" font-family="Helvetica-Light,Helvetica" font-size="31.7" fill="#000000" transform="matrix(1.00, 0.00, -0.00, -1.00, 478.3, 605.3)"> </text><image xlink:href="../../0099E750-43F4-4A1E-80C1-2076B752852F/assets/1BC49180499F5A94E2B392F358FBA16C.png" width="80.00" height="80.00" transform="matrix(0.18, 0.00, -0.00, -0.18, 279.0, 547.0)"></image><text xml:space="preserve" font-family="Helvetica-Light,Helvetica" font-size="31.7" fill="#000000" transform="matrix(1.00, 0.00, -0.00, -1.00, 309.8, 531.3)">T</text><text xml:space="preserve" font-family="Helvetica-Light,Helvetica" font-size="31.7" fill="#000000" transform="matrix(1.00, 0.00, -0.00, -1.00, 327.4, 531.3)">h</text><text xml:space="preserve" font-family="Helvetica-Light,Helvetica" font-size="31.7" fill="#000000" transform="matrix(1.00, 0.00, -0.00, -1.00, 345.0, 531.3)">e</text><text xml:space="preserve" font-family="Helvetica-Light,Helvetica" font-size="31.7" fill="#000000" transform="matrix(1.00, 0.00, -0.00, -1.00, 362.6, 531.3)"> </text><text xml:space="preserve" font-family="Helvetica-Light,Helvetica" font-size="31.7" fill="#000000" transform="matrix(1.00, 0.00, -0.00, -1.00, 371.4, 531.3)">V</text><text xml:space="preserve" font-family="Helvetica-Light,Helvetica" font-size="31.7" fill="#000000" transform="matrix(1.00, 0.00, -0.00, -1.00, 389.6, 531.3)">u</text><text xml:space="preserve" font-family="Helvetica-Light,Helvetica" font-size="31.7" fill="#000000" transform="matrix(1.00, 0.00, -0.00, -1.00, 407.2, 531.3)">l</text><text xml:space="preserve" font-family="Helvetica-Light,Helvetica" font-size="31.7" fill="#000000" transform="matrix(1.00, 0.00, -0.00, -1.00, 414.3, 531.3)">n</text><text xml:space="preserve" font-family="Helvetica-Light,Helvetica" font-size="31.7" fill="#000000" transform="matrix(1.00, 0.00, -0.00, -1.00, 431.9, 531.3)">e</text><text xml:space="preserve" font-family="Helvetica-Light,Helvetica" font-size="31.7" fill="#000000" transform="matrix(1.00, 0.00, -0.00, -1.00, 449.5, 531.3)">r</text><text xml:space="preserve" font-family="Helvetica-Light,Helvetica" font-size="31.7" fill="#000000" transform="matrix(1.00, 0.00, -0.00, -1.00, 460.1, 531.3)">a</text><text xml:space="preserve" font-family="Helvetica-Light,Helvetica" font-size="31.7" fill="#000000" transform="matrix(1.00, 0.00, -0.00, -1.00, 477.7, 531.3)">b</text><text xml:space="preserve" font-family="Helvetica-Light,Helvetica" font-size="31.7" fill="#000000" transform="matrix(1.00, 0.00, -0.00, -1.00, 497.0, 531.3)">i</text><text xml:space="preserve" font-family="Helvetica-Light,Helvetica" font-size="31.7" fill="#000000" transform="matrix(1.00, 0.00, -0.00, -1.00, 504.1, 531.3)">l</text><text xml:space="preserve" font-family="Helvetica-Light,Helvetica" font-size="31.7" fill="#000000" transform="matrix(1.00, 0.00, -0.00, -1.00, 511.1, 531.3)">i</text><text xml:space="preserve" font-family="Helvetica-Light,Helvetica" font-size="31.7" fill="#000000" transform="matrix(1.00, 0.00, -0.00, -1.00, 518.1, 531.3)">t</text><text xml:space="preserve" font-family="Helvetica-Light,Helvetica" font-size="31.7" fill="#000000" transform="matrix(1.00, 0.00, -0.00, -1.00, 526.9, 531.3)">y</text><text xml:space="preserve" font-family="Helvetica-Light,Helvetica" font-size="31.7" fill="#000000" transform="matrix(1.00, 0.00, -0.00, -1.00, 542.8, 531.3)"> </text><text xml:space="preserve" font-family="Helvetica-Light,Helvetica" font-size="31.7" fill="#000000" transform="matrix(1.00, 0.00, -0.00, -1.00, 551.6, 531.3)">E</text><text xml:space="preserve" font-family="Helvetica-Light,Helvetica" font-size="31.7" fill="#000000" transform="matrix(1.00, 0.00, -0.00, -1.00, 570.9, 531.3)">x</text><text xml:space="preserve" font-family="Helvetica-Light,Helvetica" font-size="31.7" fill="#000000" transform="matrix(1.00, 0.00, -0.00, -1.00, 586.8, 531.3)">p</text><text xml:space="preserve" font-family="Helvetica-Light,Helvetica" font-size="31.7" fill="#000000" transform="matrix(1.00, 0.00, -0.00, -1.00, 606.1, 531.3)">l</text><text xml:space="preserve" font-family="Helvetica-Light,Helvetica" font-size="31.7" fill="#000000" transform="matrix(1.00, 0.00, -0.00, -1.00, 613.2, 531.3)">a</text><text xml:space="preserve" font-family="Helvetica-Light,Helvetica" font-size="31.7" fill="#000000" transform="matrix(1.00, 0.00, -0.00, -1.00, 630.8, 531.3)">i</text><text xml:space="preserve" font-family="Helvetica-Light,Helvetica" font-size="31.7" fill="#000000" transform="matrix(1.00, 0.00, -0.00, -1.00, 637.8, 531.3)">n</text><text xml:space="preserve" font-family="Helvetica-Light,Helvetica" font-size="31.7" fill="#000000" transform="matrix(1.00, 0.00, -0.00, -1.00, 655.4, 531.3)">e</text><text xml:space="preserve" font-family="Helvetica-Light,Helvetica" font-size="31.7" fill="#000000" transform="matrix(1.00, 0.00, -0.00, -1.00, 673.0, 531.3)">d</text><text xml:space="preserve" font-family="Helvetica-Light,Helvetica" font-size="31.7" fill="#000000" transform="matrix(1.00, 0.00, -0.00, -1.00, 692.4, 531.3)"> </text><image xlink:href="../../0099E750-43F4-4A1E-80C1-2076B752852F/assets/1BC49180499F5A94E2B392F358FBA16C.png" width="80.00" height="80.00" transform="matrix(0.18, 0.00, -0.00, -0.18, 279.0, 473.0)"></image><text xml:space="preserve" font-family="Helvetica-Light,Helvetica" font-size="31.7" fill="#000000" transform="matrix(1.00, 0.00, -0.00, -1.00, 309.8, 457.4)">T</text><text xml:space="preserve" font-family="Helvetica-Light,Helvetica" font-size="31.7" fill="#000000" transform="matrix(1.00, 0.00, -0.00, -1.00, 327.4, 457.4)">h</text><text xml:space="preserve" font-family="Helvetica-Light,Helvetica" font-size="31.7" fill="#000000" transform="matrix(1.00, 0.00, -0.00, -1.00, 345.0, 457.4)">e</text><text xml:space="preserve" font-family="Helvetica-Light,Helvetica" font-size="31.7" fill="#000000" transform="matrix(1.00, 0.00, -0.00, -1.00, 362.6, 457.4)"> </text><text xml:space="preserve" font-family="Helvetica-Light,Helvetica" font-size="31.7" fill="#000000" transform="matrix(1.00, 0.00, -0.00, -1.00, 371.4, 457.4)">E</text><text xml:space="preserve" font-family="Helvetica-Light,Helvetica" font-size="31.7" fill="#000000" transform="matrix(1.00, 0.00, -0.00, -1.00, 390.8, 457.4)">x</text><text xml:space="preserve" font-family="Helvetica-Light,Helvetica" font-size="31.7" fill="#000000" transform="matrix(1.00, 0.00, -0.00, -1.00, 406.6, 457.4)">p</text><text xml:space="preserve" font-family="Helvetica-Light,Helvetica" font-size="31.7" fill="#000000" transform="matrix(1.00, 0.00, -0.00, -1.00, 426.0, 457.4)">l</text><text xml:space="preserve" font-family="Helvetica-Light,Helvetica" font-size="31.7" fill="#000000" transform="matrix(1.00, 0.00, -0.00, -1.00, 433.0, 457.4)">o</text><text xml:space="preserve" font-family="Helvetica-Light,Helvetica" font-size="31.7" fill="#000000" transform="matrix(1.00, 0.00, -0.00, -1.00, 450.6, 457.4)">i</text><text xml:space="preserve" font-family="Helvetica-Light,Helvetica" font-size="31.7" fill="#000000" transform="matrix(1.00, 0.00, -0.00, -1.00, 457.7, 457.4)">t</text><text xml:space="preserve" font-family="Helvetica-Light,Helvetica" font-size="31.7" fill="#000000" transform="matrix(1.00, 0.00, -0.00, -1.00, 466.5, 457.4)"> </text><text xml:space="preserve" font-family="Helvetica-Light,Helvetica" font-size="31.7" fill="#000000" transform="matrix(1.00, 0.00, -0.00, -1.00, 475.3, 457.4)">D</text><text xml:space="preserve" font-family="Helvetica-Light,Helvetica" font-size="31.7" fill="#000000" transform="matrix(1.00, 0.00, -0.00, -1.00, 498.2, 457.4)">e</text><text xml:space="preserve" font-family="Helvetica-Light,Helvetica" font-size="31.7" fill="#000000" transform="matrix(1.00, 0.00, -0.00, -1.00, 515.8, 457.4)">t</text><text xml:space="preserve" font-family="Helvetica-Light,Helvetica" font-size="31.7" fill="#000000" transform="matrix(1.00, 0.00, -0.00, -1.00, 524.6, 457.4)">a</text><text xml:space="preserve" font-family="Helvetica-Light,Helvetica" font-size="31.7" fill="#000000" transform="matrix(1.00, 0.00, -0.00, -1.00, 542.2, 457.4)">i</text><text xml:space="preserve" font-family="Helvetica-Light,Helvetica" font-size="31.7" fill="#000000" transform="matrix(1.00, 0.00, -0.00, -1.00, 549.2, 457.4)">l</text><text xml:space="preserve" font-family="Helvetica-Light,Helvetica" font-size="31.7" fill="#000000" transform="matrix(1.00, 0.00, -0.00, -1.00, 556.3, 457.4)">s</text><text xml:space="preserve" font-family="Helvetica-Light,Helvetica" font-size="31.7" fill="#000000" transform="matrix(1.00, 0.00, -0.00, -1.00, 572.1, 457.4)"> </text><image xlink:href="../../0099E750-43F4-4A1E-80C1-2076B752852F/assets/1BC49180499F5A94E2B392F358FBA16C.png" width="80.00" height="80.00" transform="matrix(0.18, 0.00, -0.00, -0.18, 279.0, 399.1)"></image><text xml:space="preserve" font-family="Helvetica-Light,Helvetica" font-size="31.7" fill="#000000" transform="matrix(1.00, 0.00, -0.00, -1.00, 309.8, 383.4)">E</text><text xml:space="preserve" font-family="Helvetica-Light,Helvetica" font-size="31.7" fill="#000000" transform="matrix(1.00, 0.00, -0.00, -1.00, 329.2, 383.4)">x</text><text xml:space="preserve" font-family="Helvetica-Light,Helvetica" font-size="31.7" fill="#000000" transform="matrix(1.00, 0.00, -0.00, -1.00, 345.0, 383.4)">p</text><text xml:space="preserve" font-family="Helvetica-Light,Helvetica" font-size="31.7" fill="#000000" transform="matrix(1.00, 0.00, -0.00, -1.00, 364.4, 383.4)">l</text><text xml:space="preserve" font-family="Helvetica-Light,Helvetica" font-size="31.7" fill="#000000" transform="matrix(1.00, 0.00, -0.00, -1.00, 371.4, 383.4)">o</text><text xml:space="preserve" font-family="Helvetica-Light,Helvetica" font-size="31.7" fill="#000000" transform="matrix(1.00, 0.00, -0.00, -1.00, 389.0, 383.4)">i</text><text xml:space="preserve" font-family="Helvetica-Light,Helvetica" font-size="31.7" fill="#000000" transform="matrix(1.00, 0.00, -0.00, -1.00, 396.0, 383.4)">t</text><text xml:space="preserve" font-family="Helvetica-Light,Helvetica" font-size="31.7" fill="#000000" transform="matrix(1.00, 0.00, -0.00, -1.00, 404.8, 383.4)">a</text><text xml:space="preserve" font-family="Helvetica-Light,Helvetica" font-size="31.7" fill="#000000" transform="matrix(1.00, 0.00, -0.00, -1.00, 422.5, 383.4)">t</text><text xml:space="preserve" font-family="Helvetica-Light,Helvetica" font-size="31.7" fill="#000000" transform="matrix(1.00, 0.00, -0.00, -1.00, 431.3, 383.4)">i</text><text xml:space="preserve" font-family="Helvetica-Light,Helvetica" font-size="31.7" fill="#000000" transform="matrix(1.00, 0.00, -0.00, -1.00, 438.3, 383.4)">o</text><text xml:space="preserve" font-family="Helvetica-Light,Helvetica" font-size="31.7" fill="#000000" transform="matrix(1.00, 0.00, -0.00, -1.00, 455.9, 383.4)">n</text><text xml:space="preserve" font-family="Helvetica-Light,Helvetica" font-size="31.7" fill="#000000" transform="matrix(1.00, 0.00, -0.00, -1.00, 473.5, 383.4)"> </text><text xml:space="preserve" font-family="Helvetica-Light,Helvetica" font-size="31.7" fill="#000000" transform="matrix(1.00, 0.00, -0.00, -1.00, 482.3, 383.4)">T</text><text xml:space="preserve" font-family="Helvetica-Light,Helvetica" font-size="31.7" fill="#000000" transform="matrix(1.00, 0.00, -0.00, -1.00, 496.4, 383.4)">o</text><text xml:space="preserve" font-family="Helvetica-Light,Helvetica" font-size="31.7" fill="#000000" transform="matrix(1.00, 0.00, -0.00, -1.00, 514.0, 383.4)">o</text><text xml:space="preserve" font-family="Helvetica-Light,Helvetica" font-size="31.7" fill="#000000" transform="matrix(1.00, 0.00, -0.00, -1.00, 531.7, 383.4)">l</text><text xml:space="preserve" font-family="Helvetica-Light,Helvetica" font-size="31.7" fill="#000000" transform="matrix(1.00, 0.00, -0.00, -1.00, 538.7, 383.4)">s</text><text xml:space="preserve" font-family="Helvetica-Light,Helvetica" font-size="31.7" fill="#000000" transform="matrix(1.00, 0.00, -0.00, -1.00, 554.5, 383.4)"> </text><image xlink:href="../../0099E750-43F4-4A1E-80C1-2076B752852F/assets/1BC49180499F5A94E2B392F358FBA16C.png" width="80.00" height="80.00" transform="matrix(0.18, 0.00, -0.00, -0.18, 279.0, 325.1)"></image><text xml:space="preserve" font-family="Helvetica-Light,Helvetica" font-size="31.7" fill="#000000" transform="matrix(1.00, 0.00, -0.00, -1.00, 309.8, 309.4)">D</text><text xml:space="preserve" font-family="Helvetica-Light,Helvetica" font-size="31.7" fill="#000000" transform="matrix(1.00, 0.00, -0.00, -1.00, 332.7, 309.4)">e</text><text xml:space="preserve" font-family="Helvetica-Light,Helvetica" font-size="31.7" fill="#000000" transform="matrix(1.00, 0.00, -0.00, -1.00, 350.3, 309.4)">m</text><text xml:space="preserve" font-family="Helvetica-Light,Helvetica" font-size="31.7" fill="#000000" transform="matrix(1.00, 0.00, -0.00, -1.00, 376.7, 309.4)">o</text><text xml:space="preserve" font-family="Helvetica-Light,Helvetica" font-size="31.7" fill="#000000" transform="matrix(1.00, 0.00, -0.00, -1.00, 394.3, 309.4)">n</text><text xml:space="preserve" font-family="Helvetica-Light,Helvetica" font-size="31.7" fill="#000000" transform="matrix(1.00, 0.00, -0.00, -1.00, 411.9, 309.4)">s</text><text xml:space="preserve" font-family="Helvetica-Light,Helvetica" font-size="31.7" fill="#000000" transform="matrix(1.00, 0.00, -0.00, -1.00, 427.7, 309.4)">t</text><text xml:space="preserve" font-family="Helvetica-Light,Helvetica" font-size="31.7" fill="#000000" transform="matrix(1.00, 0.00, -0.00, -1.00, 436.6, 309.4)">r</text><text xml:space="preserve" font-family="Helvetica-Light,Helvetica" font-size="31.7" fill="#000000" transform="matrix(1.00, 0.00, -0.00, -1.00, 447.1, 309.4)">a</text><text xml:space="preserve" font-family="Helvetica-Light,Helvetica" font-size="31.7" fill="#000000" transform="matrix(1.00, 0.00, -0.00, -1.00, 464.7, 309.4)">t</text><text xml:space="preserve" font-family="Helvetica-Light,Helvetica" font-size="31.7" fill="#000000" transform="matrix(1.00, 0.00, -0.00, -1.00, 473.5, 309.4)">i</text><text xml:space="preserve" font-family="Helvetica-Light,Helvetica" font-size="31.7" fill="#000000" transform="matrix(1.00, 0.00, -0.00, -1.00, 480.6, 309.4)">o</text><text xml:space="preserve" font-family="Helvetica-Light,Helvetica" font-size="31.7" fill="#000000" transform="matrix(1.00, 0.00, -0.00, -1.00, 498.2, 309.4)">n</text><text xml:space="preserve" font-family="Helvetica-Light,Helvetica" font-size="31.7" fill="#000000" transform="matrix(1.00, 0.00, -0.00, -1.00, 515.8, 309.4)"> </text><image xlink:href="../../0099E750-43F4-4A1E-80C1-2076B752852F/assets/1BC49180499F5A94E2B392F358FBA16C.png" width="80.00" height="80.00" transform="matrix(0.18, 0.00, -0.00, -0.18, 279.0, 251.2)"></image><text xml:space="preserve" font-family="Helvetica-Light,Helvetica" font-size="31.7" fill="#000000" transform="matrix(1.00, 0.00, -0.00, -1.00, 309.8, 235.5)">S</text><text xml:space="preserve" font-family="Helvetica-Light,Helvetica" font-size="31.7" fill="#000000" transform="matrix(1.00, 0.00, -0.00, -1.00, 329.2, 235.5)">u</text><text xml:space="preserve" font-family="Helvetica-Light,Helvetica" font-size="31.7" fill="#000000" transform="matrix(1.00, 0.00, -0.00, -1.00, 346.8, 235.5)">m</text><text xml:space="preserve" font-family="Helvetica-Light,Helvetica" font-size="31.7" fill="#000000" transform="matrix(1.00, 0.00, -0.00, -1.00, 373.2, 235.5)">m</text><text xml:space="preserve" font-family="Helvetica-Light,Helvetica" font-size="31.7" fill="#000000" transform="matrix(1.00, 0.00, -0.00, -1.00, 399.5, 235.5)">a</text><text xml:space="preserve" font-family="Helvetica-Light,Helvetica" font-size="31.7" fill="#000000" transform="matrix(1.00, 0.00, -0.00, -1.00, 417.2, 235.5)">r</text><text xml:space="preserve" font-family="Helvetica-Light,Helvetica" font-size="31.7" fill="#000000" transform="matrix(1.00, 0.00, -0.00, -1.00, 428.3, 235.5)">y</text><text xml:space="preserve" font-family="Helvetica-Light,Helvetica" font-size="31.7" fill="#000000" transform="matrix(1.00, 0.00, -0.00, -1.00, 444.1, 235.5)"> </text><image xlink:href="../../0099E750-43F4-4A1E-80C1-2076B752852F/assets/1BC49180499F5A94E2B392F358FBA16C.png" width="80.00" height="80.00" transform="matrix(0.18, 0.00, -0.00, -0.18, 279.0, 177.2)"></image><text xml:space="preserve" font-family="Helvetica-Light,Helvetica" font-size="31.7" fill="#000000" transform="matrix(1.00, 0.00, -0.00, -1.00, 309.8, 161.5)">R</text><text xml:space="preserve" font-family="Helvetica-Light,Helvetica" font-size="31.7" fill="#000000" transform="matrix(1.00, 0.00, -0.00, -1.00, 330.9, 161.5)">e</text><text xml:space="preserve" font-family="Helvetica-Light,Helvetica" font-size="31.7" fill="#000000" transform="matrix(1.00, 0.00, -0.00, -1.00, 348.5, 161.5)">f</text><text xml:space="preserve" font-family="Helvetica-Light,Helvetica" font-size="31.7" fill="#000000" transform="matrix(1.00, 0.00, -0.00, -1.00, 357.4, 161.5)">e</text><text xml:space="preserve" font-family="Helvetica-Light,Helvetica" font-size="31.7" fill="#000000" transform="matrix(1.00, 0.00, -0.00, -1.00, 375.0, 161.5)">r</text><text xml:space="preserve" font-family="Helvetica-Light,Helvetica" font-size="31.7" fill="#000000" transform="matrix(1.00, 0.00, -0.00, -1.00, 384.9, 161.5)">e</text><text xml:space="preserve" font-family="Helvetica-Light,Helvetica" font-size="31.7" fill="#000000" transform="matrix(1.00, 0.00, -0.00, -1.00, 402.6, 161.5)">n</text><text xml:space="preserve" font-family="Helvetica-Light,Helvetica" font-size="31.7" fill="#000000" transform="matrix(1.00, 0.00, -0.00, -1.00, 420.2, 161.5)">c</text><text xml:space="preserve" font-family="Helvetica-Light,Helvetica" font-size="31.7" fill="#000000" transform="matrix(1.00, 0.00, -0.00, -1.00, 437.8, 161.5)">e</text><text xml:space="preserve" font-family="Helvetica-Light,Helvetica" font-size="31.7" fill="#000000" transform="matrix(1.00, 0.00, -0.00, -1.00, 455.4, 161.5)">s</text><text xml:space="preserve" font-family="Helvetica-Light,Helvetica" font-size="67.2" fill="#000000" transform="matrix(1.00, 0.00, -0.00, -1.00, 392.5, 672.4)">A</text><text xml:space="preserve" font-family="Helvetica-Light,Helvetica" font-size="67.2" fill="#000000" transform="matrix(1.00, 0.00, -0.00, -1.00, 437.3, 672.4)">g</text><text xml:space="preserve" font-family="Helvetica-Light,Helvetica" font-size="67.2" fill="#000000" transform="matrix(1.00, 0.00, -0.00, -1.00, 478.4, 672.4)">e</text><text xml:space="preserve" font-family="Helvetica-Light,Helvetica" font-size="67.2" fill="#000000" transform="matrix(1.00, 0.00, -0.00, -1.00, 515.7, 672.4)">n</text><text xml:space="preserve" font-family="Helvetica-Light,Helvetica" font-size="67.2" fill="#000000" transform="matrix(1.00, 0.00, -0.00, -1.00, 553.1, 672.4)">d</text><text xml:space="preserve" font-family="Helvetica-Light,Helvetica" font-size="67.2" fill="#000000" transform="matrix(1.00, 0.00, -0.00, -1.00, 594.2, 672.4)">a</text><g><clipPath id="clip0x6080004bdfa0"><path d="M -3.0 -3.1 L 1027.0 -3.1 L 1027.0 134.2 L -3.0 134.2 Z M -3.0 -3.1 "></path></clipPath><g clip-path="url(#clip0x6080004bdfa0)"><path d="M -3.0 134.2 L 1027.0 134.2 L 1027.0 -3.1 L -3.0 -3.1 Z M -3.0 134.2 " fill="#FEFFFF" fill-opacity="0.00"></path></g></g><g><clipPath id="clip0x6080004be1e0"><path d="M -3.0 133.7 L 1027.0 133.7 L 1027.0 -3.1 L -3.0 -3.1 Z M -3.0 133.7 "></path></clipPath><g clip-path="url(#clip0x6080004be1e0)"><g><clipPath id="clip0x6080004be360"><path d="M -3.0 -3.1 L 1027.0 -3.1 L 1027.0 133.7 L -3.0 133.7 Z M -3.0 -3.1 "></path></clipPath><g clip-path="url(#clip0x6080004be360)"><image xlink:href="../../0099E750-43F4-4A1E-80C1-2076B752852F/assets/C34184BBCF388447B7F8FAFC159AF093.jpeg" width="1400.00" height="186.00" transform="matrix(0.74, 0.00, -0.00, -0.74, -3.0, 133.7)"></image></g></g></g></g></g></svg>